{"title":"Ultimate Spider-Man Season 2 EP1 The Lizard 720P","uid":8050082,"size":366429560,"categoryP":"video","categoryS":"hd___tv_shows","magnet":"?xt=urn:btih:f7979dff100685136f1c5cd6ce6cb409a6a61156&amp;dn=Ultimate+Spider-Man+Season+2+EP1+The+Lizard+720P&amp;tr=udp%3A%2F%2Ftracker.openbittorrent.com%3A80&amp;tr=udp%3A%2F%2Fopen.demonii.com%3A1337&amp;tr=udp%3A%2F%2Ftracker.coppersurfer.tk%3A6969&amp;tr=udp%3A%2F%2Fexodus.desync.com%3A6969","seeders":1,"leechers":0,"uploader":"jmanwf","files":1,"time":1358838476,"description":"The second season begins with Curt Connors transforming into the Lizard.\n\n\nFormat                                   : MPEG-4\nFormat profile                           : Base Media\nCodec ID                                 : isom\nFile size                                : 349 MiB\nDuration                                 : 22mn 8s\nOverall bit rate mode                    : Variable\nOverall bit rate                         : 2 207 Kbps\nMovie name                               : The Lizard\nAlbum                                    : Ultimate Spider-Man, Season 2\nPart/Position                            : 1\nPart/Total                               : 1\nTrack name/Position                      : 1\nTrack name/Total                         : 2\nPerformer                                : Ultimate Spider-Man\nGenre                                    : Animation\nRecorded date                            : UTC 2013-01-21 08:00:00\nTagged date                              : UTC 2013-01-16 21:01:08\nCover                                    : Yes\ndesc                                     : The Ultimate Spider-Man returns to stop the nefarious plot of Doctor Octopus\nldes                                     : The Ultimate Spider-Man returns to stop the nefarious plot of Doctor Octopus.\n\nVideo\nID                                       : 1\nFormat                                   : AVC\nFormat/Info                              : Advanced Video Codec\nFormat profile                           : &lt;a class=&quot;__cf_email__&quot; href=&quot;/cdn-cgi/l/email-protection&quot; data-cfemail=&quot;9fddfeecfaf3f6f1fadfd3acb1af&quot;&gt;[email&amp;#160;protected]&lt;/a&gt;&lt;script cf-hash='f9e31' type=&quot;text/javascript&quot;&gt;\n/* &lt;![CDATA[ */!function(){try{var t=&quot;currentScript&quot;in document?document.currentScript:function(){for(var t=document.getElementsByTagName(&quot;script&quot;),e=t.length;e--;)if(t[e].getAttribute(&quot;cf-hash&quot;))return t[e]}();if(t&amp;&amp;t.previousSibling){var e,r,n,i,c=t.previousSibling,a=c.getAttribute(&quot;data-cfemail&quot;);if(a){for(e=&quot;&quot;,r=parseInt(a.substr(0,2),16),n=2;a.length-n;n+=2)i=parseInt(a.substr(n,2),16)^r,e+=String.fromCharCode(i);e=document.createTextNode(e),c.parentNode.replaceChild(e,c)}}}catch(u){}}();/* ]]&gt; */&lt;/script&gt;\nFormat settings, CABAC                   : No\nFormat settings, ReFrames                : 3 frames\nCodec ID                                 : avc1\nCodec ID/Info                            : Advanced Video Coding\nDuration                                 : 22mn 6s\nBit rate                                 : 2 076 Kbps\nWidth                                    : 1 280 pixels\nHeight                                   : 720 pixels\nDisplay aspect ratio                     : 16:9\nFrame rate mode                          : Constant\nFrame rate                               : 23.976 fps\nColor space                              : YUV\nChroma subsampling                       : 4:2:0\nBit depth                                : 8 bits\nScan type                                : Progressive\nBits/(Pixel*Frame)                       : 0.094\nStream size                              : 328 MiB (94%)\nWriting library                          : x264 core 102\nEncoding settings                        : cabac=0 / ref=3 / deblock=1:0:0 / \n\nAudio\nID                                       : 2\nFormat                                   : AAC\nFormat/Info                              : Advanced Audio Codec\nFormat profile                           : LC\nCodec ID                                 : 40\nDuration                                 : 22mn 8s\nBit rate mode                            : Variable\nBit rate                                 : 128 Kbps\nMaximum bit rate                         : 216 Kbps\nChannel(s)                               : 2 channels\nChannel positions                        : Front: L R\nSampling rate                            : 48.0 KHz\nCompression mode                         : Lossy\nStream size                              : 20.3 MiB (6%)\nLanguage                                 : English\n\n","torrent":{"xt":"urn:btih:f7979dff100685136f1c5cd6ce6cb409a6a61156","amp;dn":"Ultimate+Spider-Man+Season+2+EP1+The+Lizard+720P","amp;tr":["udp%3A%2F%2Ftracker.openbittorrent.com%3A80","udp%3A%2F%2Fopen.demonii.com%3A1337","udp%3A%2F%2Ftracker.coppersurfer.tk%3A6969","udp%3A%2F%2Fexodus.desync.com%3A6969"],"infoHash":"f7979dff100685136f1c5cd6ce6cb409a6a61156","infoHashBuffer":{"type":"Buffer","data":[247,151,157,255,16,6,133,19,111,28,92,214,206,108,180,9,166,166,17,86]},"announce":[],"urlList":[]}}